<?xml version="1.0" standalone="no"?>
<!DOCTYPE svg PUBLIC "-//W3C//DTD SVG 20010904//EN"
 "http://www.w3.org/TR/2001/REC-SVG-20010904/DTD/svg10.dtd">
<svg version="1.0" xmlns="http://www.w3.org/2000/svg"
 width="1400.000000pt" height="1116.000000pt" viewBox="0 0 1400.000000 1116.000000"
 preserveAspectRatio="xMidYMid meet">

<g transform="translate(0.000000,1116.000000) scale(0.100000,-0.100000)"
fill="#000000" stroke="none">
<path d="M10 5580 l0 -5580 6995 0 6995 0 0 5580 0 5580 -6995 0 -6995 0 0
-5580z m6304 4378 c-14 -23 -107 -152 -133 -185 l-26 -33 -471 0 -472 0 -12
68 c-6 37 -14 88 -17 115 l-6 47 572 0 c455 0 571 -3 565 -12z m393 -188 c73
-55 133 -102 133 -105 0 -3 -92 -5 -205 -5 -190 0 -204 1 -198 18 9 24 122
192 130 192 3 0 66 -45 140 -100z m952 -877 c0 -82 -4 -157 -9 -168 -5 -11 -9
-15 -9 -9 -1 6 -8 11 -16 11 -8 0 -15 -5 -15 -11 0 -6 -4 -5 -9 2 -4 8 -12 14
-16 14 -4 0 -12 -6 -16 -14 -5 -7 -9 -8 -9 -2 0 6 -7 11 -15 11 -8 0 -15 -5
-15 -11 0 -6 -4 -5 -9 2 -4 8 -12 14 -16 14 -4 0 -12 -6 -16 -14 -5 -7 -9 -8
-9 -2 0 6 -7 11 -15 11 -8 0 -15 -5 -15 -11 0 -6 -4 -5 -9 2 -4 8 -12 14 -16
14 -4 0 -12 -6 -16 -14 -5 -7 -9 -8 -9 -2 0 6 -7 11 -15 11 -8 0 -15 -5 -15
-11 0 -6 -4 -5 -9 2 -4 8 -12 14 -16 14 -4 0 -12 -6 -16 -14 -5 -7 -9 -8 -9
-2 0 6 -7 11 -15 11 -8 0 -15 -5 -15 -11 0 -6 -4 -5 -9 2 -4 8 -12 14 -16 14
-4 0 -12 -6 -16 -14 -5 -7 -9 -8 -9 -2 0 6 -7 11 -15 11 -8 0 -15 -5 -15 -11
0 -6 -4 -5 -9 2 -4 8 -12 14 -16 14 -4 0 -12 -6 -16 -14 -5 -7 -9 -8 -9 -2 0
6 -7 11 -15 11 -8 0 -15 -5 -15 -11 0 -6 -4 -5 -9 2 -4 8 -12 14 -16 14 -4 0
-12 -6 -16 -14 -7 -10 -9 -10 -9 0 0 7 -4 10 -10 7 -5 -3 -10 -4 -10 -1 0 9
575 316 593 316 4 0 7 -66 6 -147z m-2865 -60 l249 -116 51 11 c28 6 241 58
474 115 l422 104 281 -188 c304 -204 359 -245 359 -262 0 -7 -4 -6 -10 3 -9
13 -10 13 -10 0 0 -13 -1 -13 -10 0 -9 13 -10 13 -10 0 0 -13 -1 -13 -10 0 -9
13 -10 13 -10 0 0 -13 -1 -13 -10 0 -9 13 -10 13 -10 0 0 -13 -1 -13 -10 0 -9
13 -10 13 -10 0 0 -13 -1 -13 -10 0 -9 13 -10 13 -10 0 0 -13 -1 -13 -10 0 -9
13 -10 13 -10 0 0 -13 -1 -13 -10 0 -9 13 -10 13 -10 0 0 -13 -1 -13 -10 0 -9
13 -10 13 -10 0 0 -13 -1 -13 -10 0 -9 13 -10 13 -10 0 0 -13 -1 -13 -10 0 -9
13 -10 13 -10 0 0 -13 -1 -13 -10 0 -9 13 -10 13 -10 0 0 -13 -1 -13 -10 0 -9
13 -10 13 -10 0 0 -13 -1 -13 -10 0 -9 13 -10 13 -10 0 0 -13 -1 -13 -10 0 -9
13 -10 13 -10 0 0 -13 -1 -13 -10 0 -9 13 -10 13 -10 0 0 -13 -1 -13 -10 0 -9
13 -10 13 -10 0 0 -13 -1 -13 -10 0 -9 13 -10 13 -10 0 0 -13 -1 -13 -10 0 -9
13 -10 13 -10 0 0 -13 -1 -13 -10 0 -9 13 -10 13 -10 0 0 -13 -1 -13 -10 0 -9
13 -10 13 -10 0 0 -13 -1 -13 -10 0 -9 13 -10 13 -10 0 0 -13 -1 -13 -10 0 -9
13 -10 13 -10 0 0 -12 -2 -12 -9 -2 -4 8 -12 13 -17 13 -5 -1 -55 28 -111 63
l-103 63 -257 -64 -258 -64 -344 -2 c-318 -3 -345 -2 -360 15 -21 22 -291 414
-291 422 0 3 28 6 62 6 58 0 77 -7 312 -117z m3795 -974 c105 -132 191 -244
191 -250 0 -5 -72 -9 -174 -9 l-173 0 -120 143 c-65 78 -122 147 -126 154 -4
7 34 49 98 107 58 53 107 96 109 96 3 0 91 -108 195 -241z m-2914 -959 l0
-145 -432 -1 -433 -1 0 149 0 148 433 -2 432 -3 0 -145z m860 -5 c94 -85 171
-161 173 -169 3 -15 -100 -222 -123 -245 -11 -11 -48 -15 -160 -15 -80 -1
-145 2 -145 7 0 4 18 46 39 94 22 48 37 92 33 99 -4 6 -96 91 -204 188 -109
97 -198 181 -198 187 0 5 84 9 208 9 l208 0 169 -155z m2090 38 c31 -38 88
-110 127 -161 l72 -94 -37 -111 c-21 -62 -41 -118 -46 -125 -6 -10 -44 -14
-144 -15 -75 0 -139 1 -142 4 -3 3 6 43 20 90 13 46 25 89 25 94 0 6 -65 91
-145 189 -80 99 -145 183 -145 188 0 4 81 8 180 8 l180 0 55 -67z m-846 -539
c51 -36 90 -69 86 -72 -3 -3 -245 -7 -537 -7 -406 0 -531 2 -535 12 -3 6 8 39
23 72 l27 61 422 0 422 0 92 -66z m-258 -507 c127 -82 329 -216 329 -220 0 -1
-115 -2 -256 -1 -251 1 -258 2 -300 25 -24 13 -44 28 -44 32 0 14 140 237 149
237 4 0 59 -33 122 -73z m2113 -1305 c3 -5 2 -22 -3 -38 l-7 -29 -2606 -3
-2606 -2 -4 35 c-2 20 -2 38 1 40 8 9 5220 5 5225 -3z m-5881 -901 c113 -44
169 -122 170 -234 0 -78 -24 -137 -71 -179 -23 -20 -32 -33 -24 -36 33 -11 99
-72 122 -112 21 -38 25 -58 25 -131 0 -78 -3 -90 -30 -135 -67 -108 -171 -144
-419 -144 l-156 0 0 501 0 501 163 -4 c137 -4 171 -8 220 -27z m3120 -131 c75
-11 130 -35 166 -73 43 -46 0 -65 -51 -22 -40 34 -98 48 -193 48 -96 0 -154
-22 -202 -76 -53 -60 -68 -129 -68 -302 0 -186 15 -246 78 -309 55 -55 108
-70 224 -64 90 4 135 20 180 61 19 16 25 18 38 7 23 -19 18 -32 -22 -63 -52
-39 -124 -58 -224 -58 -233 0 -329 124 -329 426 0 173 28 273 94 343 51 55
111 78 231 91 6 0 41 -4 78 -9z m-1524 -413 c96 -226 176 -415 178 -419 2 -5
-115 -8 -261 -8 l-266 0 0 25 0 25 226 0 c211 0 226 1 220 18 -29 76 -272 642
-276 642 -3 0 -73 -158 -155 -351 -82 -193 -155 -353 -162 -356 -47 -18 -39 6
135 420 97 229 179 417 182 417 3 0 83 -186 179 -413z m4096 78 c75 -176 154
-362 175 -412 l39 -93 -269 0 -270 0 0 25 0 25 231 0 c181 0 230 3 226 13 -42
105 -270 634 -276 640 -7 7 -83 -165 -274 -618 -29 -69 -38 -80 -60 -83 -15
-2 -27 -1 -27 2 0 3 77 186 171 408 94 222 173 409 176 416 3 7 9 10 14 5 4
-4 69 -152 144 -328z m-4963 314 c89 -19 153 -61 185 -123 20 -39 19 -124 -2
-169 -13 -29 -72 -82 -123 -112 -1 -1 41 -93 93 -205 52 -111 95 -205 95 -207
0 -2 -12 -3 -27 -1 -24 3 -36 22 -125 212 -54 115 -98 212 -98 216 0 4 18 15
40 25 53 24 107 85 116 130 22 119 -109 200 -313 193 l-88 -3 -3 -388 -2 -388
-23 3 -22 3 -3 390 c-1 215 0 400 3 413 5 21 9 22 125 22 65 0 143 -5 172 -11z
m1478 -352 l225 -362 3 363 2 362 25 0 25 0 0 -416 0 -415 -27 3 c-23 3 -54
47 -247 360 -122 197 -224 358 -228 358 -5 0 -8 -162 -8 -360 l0 -360 -25 0
-25 0 0 408 c0 225 3 412 7 415 3 4 16 7 27 7 17 0 68 -75 246 -363z m1358
175 l2 -182 208 2 207 3 3 183 c2 183 2 183 25 180 l22 -3 3 -412 2 -413 -25
0 -25 0 0 205 0 205 -210 0 -210 0 0 -205 0 -205 -25 0 -25 0 0 416 0 415 23
-3 c22 -3 22 -5 25 -186z m857 108 c44 -44 118 -114 163 -156 l84 -77 156 156
c109 109 164 157 180 157 l22 0 0 -415 0 -415 -295 0 -295 0 0 25 0 25 270 0
270 0 0 352 0 353 -153 -153 c-84 -83 -157 -152 -162 -152 -5 0 -78 69 -162
152 l-153 153 0 -378 0 -377 -25 0 -25 0 0 415 0 415 23 0 c14 0 50 -28 102
-80z m1685 -335 l0 -415 -25 0 -25 0 0 415 0 415 25 0 25 0 0 -415z m540 53
l225 -362 3 362 2 362 25 0 25 0 0 -416 0 -415 -26 3 c-23 3 -57 52 -248 360
-121 196 -224 354 -228 351 -5 -2 -8 -164 -8 -359 l0 -354 -25 0 -25 0 0 408
c0 225 3 412 7 415 3 4 16 7 27 7 17 0 67 -75 246 -362z"/>
<path d="M3420 3209 l0 -451 153 4 c126 4 162 9 210 27 105 41 157 124 144
232 -11 91 -64 145 -181 185 -25 9 -46 19 -46 22 0 4 21 18 47 32 101 54 144
133 122 230 -27 121 -127 170 -344 170 l-105 0 0 -451z"/>
</g>
</svg>
